<svg width="36" height="39" viewBox="0 0 36 39" fill="none" xmlns="http://www.w3.org/2000/svg">
<g style="mix-blend-mode:darken">
<path d="M2.28121 6.27056H34.7384L29.6136 27.3528H7.40603L2.28121 6.27056ZM15.9474 34.7316C15.9474 35.5703 15.6774 36.3746 15.1969 36.9677C14.7163 37.5607 14.0646 37.8939 13.385 37.8939C12.7054 37.8939 12.0536 37.5607 11.5731 36.9677C11.0925 36.3746 10.8226 35.5703 10.8226 34.7316H15.9474ZM26.1971 34.7316C26.1971 35.5703 25.9271 36.3746 25.4465 36.9677C24.966 37.5607 24.3142 37.8939 23.6346 37.8939C22.9551 37.8939 22.3033 37.5607 21.8227 36.9677C21.3422 36.3746 21.0722 35.5703 21.0722 34.7316" fill="#E5E5E5"/>
<path d="M2.28121 6.27056H34.7384L29.6136 27.3528H7.40603L2.28121 6.27056ZM2.28121 6.27056L1 1M14.2255 16.8117H17.642M17.642 16.8117H21.0586M17.642 16.8117V12.5952M17.642 16.8117V21.0281M26.1971 34.7316C26.1971 35.5703 25.9271 36.3746 25.4465 36.9677C24.966 37.5607 24.3142 37.8939 23.6346 37.8939C22.9551 37.8939 22.3033 37.5607 21.8227 36.9677C21.3422 36.3746 21.0722 35.5703 21.0722 34.7316M15.9474 34.7316C15.9474 35.5703 15.6774 36.3746 15.1969 36.9677C14.7163 37.5607 14.0646 37.8939 13.385 37.8939C12.7054 37.8939 12.0536 37.5607 11.5731 36.9677C11.0925 36.3746 10.8226 35.5703 10.8226 34.7316H15.9474Z" stroke="black" stroke-width="1.5" stroke-linecap="round" stroke-linejoin="round"/>
</g>
</svg>
